<svg id="svg" version="1.1" xmlns="http://www.w3.org/2000/svg" xmlns:xlink="http://www.w3.org/1999/xlink" width="400" height="240.4870624048706" viewBox="0, 0, 400,240.4870624048706"><g id="svgg"><path id="path0" d="M62.237 90.162 C 50.364 102.042,40.649 111.942,40.649 112.161 C 40.649 112.618,57.093 129.164,57.547 129.164 C 57.711 129.164,63.697 123.313,70.850 116.162 L 83.854 103.159 87.365 106.661 C 89.297 108.587,91.001 110.162,91.153 110.162 C 91.541 110.162,108.238 93.429,108.238 93.040 C 108.238 92.750,84.220 68.544,83.944 68.556 C 83.878 68.558,74.110 78.281,62.237 90.162 " stroke="none" fill="#4cabac" fill-rule="evenodd"></path><path id="path1" d="M40.649 158.148 L 40.649 177.270 44.498 177.270 L 48.346 177.270 48.350 165.785 L 48.354 154.299 48.938 155.262 C 49.260 155.791,49.685 156.575,49.884 157.005 C 50.083 157.435,50.348 157.787,50.473 157.787 C 50.597 157.787,50.762 158.037,50.839 158.343 C 50.916 158.649,51.252 159.217,51.586 159.606 C 51.921 159.995,52.194 160.440,52.195 160.596 C 52.195 160.752,52.361 161.046,52.564 161.249 C 52.768 161.452,53.094 162.001,53.289 162.469 C 53.485 162.937,53.751 163.319,53.882 163.319 C 54.012 163.319,54.119 163.438,54.119 163.584 C 54.119 163.873,55.748 166.623,56.208 167.109 C 56.364 167.275,56.567 167.654,56.659 167.951 C 57.000 169.062,57.575 169.333,59.581 169.329 C 61.755 169.325,61.839 169.286,62.433 168.010 C 62.679 167.480,63.013 166.911,63.175 166.744 C 63.338 166.578,63.607 166.063,63.774 165.602 C 63.941 165.140,64.169 164.762,64.282 164.762 C 64.394 164.762,64.647 164.411,64.844 163.981 C 65.041 163.551,65.520 162.712,65.910 162.117 C 66.300 161.521,66.693 160.872,66.783 160.673 C 66.874 160.475,67.240 159.880,67.596 159.351 C 67.953 158.821,68.321 158.145,68.414 157.847 C 68.507 157.550,68.662 157.306,68.758 157.306 C 68.854 157.306,69.134 156.819,69.380 156.224 C 69.625 155.628,69.921 155.141,70.038 155.141 C 70.155 155.141,70.348 154.898,70.468 154.600 C 70.602 154.266,70.691 158.491,70.700 165.664 L 70.716 177.270 74.684 177.270 L 78.653 177.270 78.653 158.141 L 78.653 139.013 75.131 139.080 C 71.896 139.141,71.587 139.185,71.343 139.627 C 71.196 139.892,71.022 140.162,70.955 140.229 C 70.673 140.509,69.305 142.875,69.159 143.335 C 69.071 143.611,68.923 143.836,68.829 143.836 C 68.735 143.836,68.445 144.322,68.184 144.917 C 67.923 145.511,67.627 145.998,67.527 145.999 C 67.426 146.000,67.171 146.434,66.959 146.963 C 66.748 147.492,66.485 147.925,66.376 147.925 C 66.267 147.925,66.106 148.152,66.018 148.429 C 65.930 148.706,65.544 149.398,65.160 149.967 C 64.776 150.536,64.462 151.121,64.462 151.268 C 64.462 151.414,64.370 151.533,64.258 151.533 C 64.145 151.533,63.852 152.020,63.607 152.616 C 63.361 153.211,63.086 153.698,62.996 153.698 C 62.905 153.698,62.598 154.158,62.313 154.720 C 61.495 156.334,60.989 157.179,60.788 157.268 C 60.685 157.313,60.447 157.719,60.259 158.170 C 59.823 159.214,59.477 159.208,59.034 158.148 C 58.841 157.685,58.603 157.306,58.505 157.305 C 58.408 157.305,58.128 156.818,57.884 156.223 C 57.639 155.628,57.341 155.141,57.222 155.141 C 57.103 155.141,57.005 154.999,57.005 154.826 C 57.005 154.652,56.808 154.298,56.566 154.039 C 56.324 153.779,55.924 153.109,55.678 152.550 C 55.431 151.991,55.166 151.533,55.090 151.533 C 55.013 151.533,54.736 151.127,54.474 150.631 C 54.213 150.135,53.909 149.621,53.800 149.489 C 53.475 149.094,52.472 147.381,52.076 146.542 C 51.873 146.112,51.612 145.761,51.496 145.761 C 51.380 145.761,51.222 145.510,51.145 145.204 C 51.068 144.897,50.786 144.394,50.518 144.085 C 50.249 143.775,50.030 143.397,50.030 143.244 C 50.030 143.090,49.838 142.755,49.603 142.499 C 49.368 142.242,49.011 141.708,48.809 141.311 C 48.607 140.914,48.231 140.238,47.973 139.809 L 47.505 139.029 44.077 139.027 L 40.649 139.026 40.649 158.148 M99.146 139.314 C 98.987 139.473,98.857 139.690,98.857 139.796 C 98.857 139.902,98.425 140.409,97.895 140.922 C 96.430 142.344,96.569 142.634,98.720 142.634 C 99.876 142.634,100.619 142.522,100.825 142.317 C 100.999 142.143,101.467 141.794,101.864 141.541 C 102.261 141.289,102.672 140.944,102.778 140.775 C 102.884 140.607,103.108 140.469,103.276 140.469 C 103.556 140.469,104.630 139.419,104.630 139.144 C 104.630 138.874,99.426 139.035,99.146 139.314 M220.166 139.362 C 220.013 139.537,219.688 140.264,219.445 140.977 C 219.201 141.690,218.880 142.402,218.732 142.560 C 218.583 142.718,218.316 143.341,218.138 143.943 C 217.960 144.546,217.730 145.039,217.626 145.039 C 217.523 145.039,217.438 145.144,217.438 145.272 C 217.438 145.489,217.039 146.425,215.641 149.489 C 215.339 150.150,214.949 151.097,214.774 151.594 C 214.599 152.090,214.391 152.495,214.313 152.495 C 214.235 152.495,213.968 153.091,213.721 153.818 C 213.474 154.546,213.181 155.141,213.070 155.141 C 212.959 155.141,212.868 155.301,212.868 155.496 C 212.868 155.691,212.563 156.530,212.189 157.360 C 211.815 158.190,211.140 159.735,210.688 160.794 C 210.235 161.852,209.802 162.772,209.724 162.838 C 209.645 162.904,209.380 163.527,209.133 164.221 C 208.886 164.916,208.597 165.484,208.491 165.484 C 208.385 165.484,208.298 165.653,208.298 165.860 C 208.298 166.208,207.939 167.062,206.486 170.174 C 206.177 170.836,205.787 171.783,205.620 172.279 C 205.452 172.775,205.241 173.181,205.151 173.181 C 205.060 173.181,204.801 173.749,204.574 174.444 C 204.347 175.138,204.072 175.762,203.964 175.829 C 203.855 175.897,203.692 176.248,203.601 176.611 L 203.436 177.270 207.611 177.266 C 212.307 177.262,212.222 177.285,212.639 175.887 C 212.807 175.325,213.028 174.865,213.130 174.865 C 213.232 174.865,213.493 174.254,213.710 173.508 C 213.926 172.762,214.247 171.923,214.421 171.644 C 214.596 171.365,214.875 170.704,215.041 170.174 C 215.207 169.645,215.439 169.150,215.555 169.074 C 215.671 168.998,215.946 168.295,216.166 167.511 C 216.698 165.610,216.132 165.732,224.426 165.728 L 231.773 165.725 232.096 166.627 C 232.274 167.123,232.492 167.583,232.580 167.649 C 232.669 167.715,232.935 168.391,233.170 169.152 C 233.406 169.913,233.679 170.535,233.778 170.535 C 233.877 170.535,234.159 171.239,234.405 172.099 C 234.651 172.959,234.927 173.662,235.019 173.662 C 235.110 173.662,235.259 173.960,235.350 174.324 C 235.440 174.687,235.749 175.499,236.036 176.127 L 236.558 177.270 240.828 177.270 C 243.177 177.270,245.099 177.181,245.099 177.073 C 245.099 176.613,244.344 174.383,244.188 174.382 C 244.094 174.380,243.815 173.731,243.568 172.938 C 243.320 172.146,243.043 171.497,242.950 171.497 C 242.857 171.497,242.594 170.902,242.365 170.174 C 242.135 169.447,241.869 168.851,241.772 168.851 C 241.675 168.851,241.452 168.364,241.277 167.769 C 241.101 167.174,240.869 166.687,240.760 166.687 C 240.652 166.687,240.390 166.091,240.179 165.364 C 239.967 164.636,239.709 164.041,239.606 164.041 C 239.502 164.041,239.223 163.391,238.985 162.598 C 238.747 161.804,238.464 161.155,238.355 161.155 C 238.247 161.155,237.985 160.559,237.773 159.832 C 237.562 159.104,237.298 158.509,237.186 158.509 C 237.075 158.509,236.847 158.022,236.681 157.426 C 236.514 156.831,236.298 156.344,236.201 156.344 C 236.104 156.344,235.838 155.749,235.609 155.021 C 235.380 154.293,235.106 153.698,235.001 153.698 C 234.895 153.698,234.614 153.049,234.376 152.255 C 234.138 151.461,233.862 150.812,233.761 150.812 C 233.661 150.812,233.391 150.216,233.161 149.489 C 232.932 148.761,232.673 148.166,232.586 148.166 C 232.499 148.166,232.280 147.706,232.099 147.144 C 231.918 146.581,231.701 146.067,231.618 146.001 C 231.534 145.935,231.264 145.340,231.019 144.678 C 230.773 144.017,230.506 143.422,230.426 143.355 C 230.345 143.289,230.133 142.856,229.954 142.393 C 229.775 141.930,229.368 140.983,229.048 140.289 L 228.468 139.026 224.456 139.035 C 221.440 139.042,220.376 139.123,220.166 139.362 M94.386 144.197 C 94.303 144.528,94.156 144.799,94.059 144.799 C 93.962 144.799,93.747 145.259,93.581 145.821 C 93.415 146.383,93.091 147.168,92.861 147.565 C 92.632 147.962,92.300 148.746,92.124 149.308 C 91.949 149.871,91.722 150.331,91.620 150.331 C 91.518 150.331,91.262 150.926,91.051 151.654 C 90.839 152.381,90.575 152.977,90.464 152.977 C 90.352 152.977,90.125 153.464,89.958 154.059 C 89.791 154.654,89.576 155.141,89.479 155.141 C 89.382 155.141,89.115 155.737,88.886 156.464 C 88.657 157.192,88.383 157.787,88.278 157.787 C 88.172 157.787,87.891 158.437,87.653 159.230 C 87.416 160.024,87.136 160.673,87.033 160.673 C 86.929 160.673,86.671 161.269,86.460 161.996 C 86.248 162.724,85.975 163.319,85.852 163.319 C 85.729 163.319,85.628 163.424,85.628 163.553 C 85.628 163.782,85.054 165.116,83.691 168.050 C 83.312 168.867,82.931 169.814,82.846 170.155 C 82.760 170.496,82.616 170.776,82.525 170.776 C 82.435 170.776,82.158 171.371,81.911 172.099 C 81.664 172.826,81.394 173.422,81.312 173.422 C 81.230 173.422,81.021 173.904,80.847 174.494 C 80.672 175.084,80.378 175.693,80.193 175.846 C 80.007 176.000,79.856 176.384,79.856 176.698 L 79.856 177.270 84.178 177.270 L 88.501 177.270 88.886 175.947 C 89.097 175.219,89.371 174.624,89.494 174.624 C 89.617 174.624,89.715 174.489,89.712 174.324 C 89.710 174.158,90.061 173.184,90.494 172.158 L 91.281 170.293 98.737 170.354 L 106.194 170.415 106.270 170.956 C 106.313 171.254,106.436 171.497,106.545 171.497 C 106.654 171.497,106.938 172.147,107.175 172.940 C 107.413 173.734,107.681 174.384,107.771 174.384 C 107.861 174.384,108.074 174.898,108.244 175.526 C 108.747 177.386,108.184 177.270,116.702 177.270 C 124.969 177.270,125.041 177.259,125.548 175.967 C 125.734 175.493,125.972 175.105,126.076 175.105 C 126.180 175.105,126.445 174.753,126.665 174.324 C 126.885 173.894,127.212 173.455,127.393 173.349 C 127.573 173.244,127.725 173.027,127.731 172.868 C 127.736 172.710,128.061 172.205,128.452 171.747 C 128.844 171.289,129.164 170.786,129.164 170.630 C 129.164 170.474,129.327 170.284,129.525 170.208 C 129.723 170.132,129.886 169.945,129.886 169.793 C 129.886 169.641,130.265 169.001,130.728 168.370 C 131.191 167.740,131.569 167.114,131.569 166.981 C 131.569 166.467,132.289 166.475,132.566 166.991 C 132.721 167.281,132.966 167.650,133.111 167.810 C 133.255 167.970,133.644 168.497,133.975 168.982 C 134.305 169.466,134.742 170.044,134.945 170.267 C 135.148 170.489,135.499 171.062,135.725 171.539 C 135.952 172.017,136.300 172.470,136.499 172.546 C 136.698 172.622,136.861 172.799,136.861 172.939 C 136.861 173.184,138.428 175.583,138.748 175.827 C 138.835 175.893,139.060 176.245,139.247 176.609 L 139.588 177.270 144.478 177.270 C 148.665 177.270,149.369 177.218,149.369 176.909 C 149.369 176.711,149.284 176.548,149.180 176.548 C 149.076 176.548,148.787 176.197,148.537 175.767 C 148.288 175.337,147.940 174.898,147.764 174.793 C 147.588 174.687,147.444 174.470,147.444 174.312 C 147.444 174.153,147.119 173.644,146.723 173.181 C 146.327 172.718,146.002 172.266,146.002 172.176 C 146.001 172.086,145.864 171.870,145.696 171.695 C 145.528 171.520,144.962 170.782,144.438 170.054 C 143.914 169.327,143.348 168.588,143.180 168.413 C 143.012 168.239,142.874 168.022,142.874 167.932 C 142.873 167.843,142.549 167.390,142.153 166.927 C 141.756 166.464,141.432 165.986,141.432 165.865 C 141.431 165.744,141.269 165.473,141.071 165.264 C 140.442 164.598,139.026 162.602,139.026 162.381 C 139.026 162.264,138.862 162.105,138.661 162.028 C 138.461 161.951,138.193 161.615,138.066 161.281 C 137.939 160.947,137.737 160.673,137.617 160.673 C 137.263 160.673,137.119 159.727,137.443 159.530 C 137.607 159.431,137.949 158.979,138.203 158.524 C 138.631 157.760,138.970 157.314,139.879 156.324 C 140.071 156.114,140.229 155.862,140.229 155.763 C 140.229 155.664,140.607 155.121,141.070 154.556 C 141.533 153.991,141.912 153.416,141.912 153.278 C 141.912 153.141,142.075 152.966,142.273 152.890 C 142.471 152.813,142.634 152.592,142.634 152.396 C 142.634 152.201,142.823 151.900,143.055 151.727 C 143.286 151.555,143.638 151.088,143.836 150.692 C 144.035 150.295,144.387 149.828,144.618 149.656 C 144.850 149.483,145.039 149.182,145.039 148.987 C 145.039 148.792,145.202 148.569,145.401 148.493 C 145.600 148.417,145.947 147.960,146.172 147.478 C 146.397 146.997,146.775 146.461,147.012 146.288 C 147.250 146.115,147.444 145.823,147.444 145.639 C 147.444 145.454,147.591 145.217,147.770 145.111 C 148.078 144.929,148.647 144.031,148.647 143.727 C 148.647 143.218,139.378 143.736,139.149 144.257 C 139.019 144.555,138.834 144.799,138.740 144.799 C 138.645 144.799,138.378 145.204,138.146 145.701 C 137.914 146.197,137.531 146.744,137.293 146.917 C 137.055 147.090,136.861 147.382,136.861 147.566 C 136.861 147.751,136.713 147.988,136.533 148.094 C 136.352 148.200,136.025 148.638,135.805 149.068 C 135.585 149.498,135.300 149.850,135.171 149.850 C 135.042 149.850,134.937 149.989,134.937 150.159 C 134.937 150.330,134.617 150.844,134.225 151.302 C 133.834 151.760,133.505 152.243,133.495 152.375 C 133.439 153.098,132.288 154.069,132.140 153.518 C 132.060 153.220,131.896 152.977,131.776 152.977 C 131.656 152.977,131.454 152.703,131.327 152.369 C 131.200 152.035,130.932 151.699,130.731 151.622 C 130.531 151.545,130.367 151.354,130.367 151.198 C 130.367 151.042,130.046 150.539,129.655 150.081 C 129.263 149.623,128.939 149.110,128.933 148.940 C 128.928 148.771,128.765 148.571,128.572 148.497 C 128.379 148.423,128.161 148.175,128.088 147.946 C 128.015 147.717,127.752 147.311,127.503 147.043 C 127.254 146.776,126.874 146.216,126.658 145.798 C 126.442 145.381,126.173 145.039,126.060 145.039 C 125.947 145.039,125.721 144.714,125.556 144.317 L 125.257 143.596 120.596 143.596 C 116.489 143.596,115.935 143.642,115.935 143.980 C 115.935 144.501,116.681 145.809,117.198 146.195 C 117.429 146.368,117.619 146.669,117.619 146.864 C 117.619 147.059,117.781 147.281,117.980 147.357 C 118.178 147.434,118.340 147.592,118.340 147.709 C 118.340 147.930,119.756 149.925,120.386 150.591 C 120.584 150.801,120.746 151.078,120.746 151.208 C 120.746 151.337,120.944 151.655,121.186 151.915 C 121.428 152.175,121.831 152.710,122.082 153.103 C 122.333 153.496,122.676 153.905,122.844 154.011 C 123.013 154.117,123.151 154.301,123.151 154.421 C 123.151 154.634,125.176 157.515,125.889 158.316 C 127.019 159.585,127.104 161.876,126.020 161.876 C 125.891 161.876,125.681 162.149,125.554 162.484 C 125.427 162.818,125.159 163.154,124.959 163.231 C 124.758 163.308,124.594 163.499,124.594 163.655 C 124.594 163.811,124.274 164.314,123.882 164.772 C 123.491 165.230,123.166 165.736,123.161 165.897 C 123.155 166.057,122.934 166.305,122.670 166.446 C 122.405 166.588,122.189 166.842,122.189 167.011 C 122.189 167.179,121.991 167.530,121.749 167.790 C 121.507 168.050,121.103 168.584,120.852 168.978 C 120.602 169.371,120.258 169.780,120.090 169.886 C 119.921 169.991,119.784 170.181,119.784 170.308 C 119.784 170.434,119.188 171.313,118.461 172.261 C 117.733 173.210,117.138 174.075,117.138 174.185 C 117.138 174.294,116.975 174.384,116.777 174.384 C 116.578 174.384,116.416 174.278,116.416 174.149 C 116.416 174.020,116.091 173.206,115.695 172.339 C 115.298 171.473,114.973 170.658,114.973 170.529 C 114.973 170.400,114.888 170.295,114.785 170.295 C 114.682 170.295,114.451 169.802,114.273 169.199 C 114.095 168.596,113.801 167.955,113.620 167.773 C 113.438 167.591,113.289 167.322,113.289 167.175 C 113.289 167.028,112.978 166.235,112.598 165.414 C 112.218 164.593,111.764 163.515,111.588 163.019 C 111.412 162.523,111.186 162.117,111.085 162.117 C 110.985 162.117,110.780 161.657,110.630 161.094 C 110.481 160.532,110.217 159.910,110.043 159.711 C 109.870 159.513,109.593 158.891,109.426 158.328 C 109.260 157.766,109.050 157.306,108.960 157.306 C 108.870 157.306,108.651 156.846,108.473 156.284 C 108.295 155.722,107.958 154.883,107.724 154.420 C 107.490 153.957,107.086 153.091,106.827 152.495 C 106.567 151.900,105.967 150.572,105.493 149.544 C 105.018 148.516,104.630 147.568,104.630 147.439 C 104.630 147.310,104.546 147.204,104.442 147.204 C 104.339 147.204,104.109 146.711,103.931 146.108 C 103.753 145.506,103.458 144.864,103.277 144.682 C 103.095 144.501,102.946 144.182,102.946 143.974 C 102.946 143.645,102.404 143.596,98.742 143.596 L 94.537 143.596 94.386 144.197 M151.774 160.433 L 151.774 177.270 155.863 177.270 L 159.952 177.270 159.952 160.433 L 159.952 143.596 155.863 143.596 L 151.774 143.596 151.774 160.433 M164.281 160.433 L 164.281 177.270 168.250 177.270 L 172.219 177.270 172.224 168.310 L 172.230 159.351 172.705 159.952 C 172.966 160.283,173.363 160.959,173.587 161.455 C 173.812 161.951,174.058 162.357,174.135 162.357 C 174.211 162.357,174.487 162.763,174.748 163.259 C 175.008 163.755,175.289 164.215,175.371 164.281 C 175.515 164.396,176.173 165.558,177.091 167.319 C 177.324 167.765,177.600 168.130,177.705 168.130 C 177.809 168.130,178.032 168.509,178.199 168.972 C 178.367 169.435,178.593 169.814,178.702 169.814 C 178.811 169.814,179.138 170.274,179.427 170.836 C 181.065 174.014,180.917 173.896,183.283 173.891 C 185.326 173.887,185.608 173.736,186.292 172.282 C 186.555 171.721,186.852 171.261,186.951 171.260 C 187.051 171.258,187.132 171.137,187.132 170.991 C 187.132 170.845,187.446 170.260,187.830 169.691 C 188.214 169.122,188.600 168.429,188.688 168.152 C 188.776 167.875,188.937 167.649,189.046 167.649 C 189.155 167.649,189.417 167.216,189.629 166.687 C 189.841 166.158,190.109 165.725,190.224 165.725 C 190.339 165.725,190.620 165.238,190.847 164.642 C 191.074 164.047,191.352 163.560,191.465 163.560 C 191.577 163.560,191.746 163.316,191.839 163.019 C 191.932 162.721,192.318 162.025,192.697 161.472 C 193.076 160.919,193.385 160.351,193.385 160.209 C 193.385 160.068,193.477 159.952,193.589 159.952 C 193.701 159.952,193.910 159.708,194.054 159.411 C 194.258 158.988,194.319 159.500,194.332 161.756 C 194.341 163.343,194.420 167.483,194.507 170.956 L 194.665 177.270 198.475 177.270 L 202.285 177.270 202.285 160.433 L 202.285 143.596 198.775 143.596 C 195.467 143.596,195.257 143.624,195.139 144.077 C 195.070 144.342,194.934 144.558,194.837 144.558 C 194.740 144.558,194.455 145.017,194.204 145.578 C 193.952 146.139,193.557 146.789,193.325 147.021 C 193.094 147.254,192.904 147.601,192.904 147.793 C 192.904 147.985,192.763 148.229,192.590 148.334 C 192.416 148.440,192.133 148.879,191.959 149.308 C 191.785 149.738,191.557 150.090,191.451 150.090 C 191.345 150.090,191.133 150.468,190.981 150.930 C 190.828 151.392,190.573 151.852,190.414 151.952 C 190.255 152.053,189.922 152.595,189.674 153.157 C 189.426 153.719,189.156 154.179,189.073 154.179 C 188.991 154.179,188.710 154.665,188.448 155.259 C 188.187 155.853,187.887 156.340,187.781 156.342 C 187.675 156.343,187.475 156.669,187.336 157.066 C 187.198 157.462,186.996 157.787,186.888 157.787 C 186.779 157.787,186.504 158.274,186.277 158.870 C 186.050 159.465,185.782 159.952,185.682 159.952 C 185.582 159.952,185.327 160.385,185.115 160.914 C 184.904 161.443,184.628 161.876,184.504 161.876 C 184.380 161.876,184.202 162.120,184.109 162.417 C 183.695 163.743,183.357 163.920,182.908 163.044 C 182.681 162.600,182.417 162.183,182.323 162.117 C 182.229 162.051,181.950 161.563,181.703 161.034 C 181.456 160.505,181.162 159.964,181.048 159.832 C 180.729 159.460,179.727 157.754,179.316 156.885 C 179.113 156.455,178.852 156.103,178.736 156.103 C 178.620 156.103,178.462 155.853,178.385 155.546 C 178.308 155.240,178.026 154.736,177.758 154.427 C 177.489 154.118,177.270 153.740,177.270 153.586 C 177.270 153.433,177.077 153.098,176.841 152.842 C 176.605 152.585,176.221 151.969,175.988 151.473 C 175.755 150.977,175.488 150.570,175.395 150.569 C 175.302 150.568,175.012 150.081,174.751 149.487 C 174.490 148.893,174.205 148.406,174.118 148.406 C 174.032 148.406,173.826 148.082,173.662 147.685 C 173.498 147.288,173.290 146.963,173.201 146.963 C 173.112 146.963,172.838 146.476,172.593 145.881 C 172.347 145.286,172.052 144.799,171.936 144.799 C 171.821 144.799,171.623 144.528,171.497 144.197 L 171.269 143.596 167.775 143.596 L 164.281 143.596 164.281 160.433 M299.560 148.527 C 299.560 151.173,299.595 152.288,299.638 151.005 C 299.681 149.722,299.681 147.557,299.638 146.194 C 299.595 144.831,299.560 145.881,299.560 148.527 M335.875 147.324 C 335.875 149.308,335.913 150.088,335.958 149.057 C 336.003 148.026,336.003 146.402,335.957 145.449 C 335.912 144.496,335.875 145.340,335.875 147.324 M224.626 148.647 C 224.724 148.647,224.998 149.296,225.236 150.090 C 225.474 150.884,225.745 151.533,225.839 151.533 C 225.933 151.533,226.158 152.075,226.338 152.736 C 226.518 153.397,226.751 153.939,226.856 153.939 C 226.960 153.939,227.219 154.534,227.431 155.262 C 227.642 155.989,227.893 156.584,227.989 156.584 C 228.084 156.584,228.315 157.099,228.501 157.727 C 228.687 158.355,228.880 159.005,228.929 159.170 C 228.999 159.404,227.962 159.471,224.295 159.471 L 219.571 159.471 219.740 158.930 C 219.832 158.632,219.985 158.334,220.080 158.268 C 220.174 158.202,220.444 157.526,220.681 156.765 C 220.918 156.004,221.186 155.382,221.276 155.382 C 221.367 155.382,221.588 154.841,221.768 154.179 C 221.948 153.518,222.169 152.977,222.260 152.977 C 222.350 152.977,222.611 152.381,222.840 151.654 C 223.068 150.927,223.339 150.280,223.441 150.217 C 223.543 150.154,223.773 149.586,223.952 148.954 C 224.134 148.314,224.316 147.992,224.364 148.226 C 224.411 148.458,224.529 148.647,224.626 148.647 M98.998 153.157 C 99.067 153.388,99.325 154.011,99.573 154.540 C 99.820 155.069,100.165 155.935,100.340 156.464 C 100.516 156.993,100.725 157.480,100.805 157.547 C 100.886 157.613,101.138 158.235,101.367 158.930 C 101.595 159.624,101.856 160.192,101.947 160.192 C 102.037 160.192,102.312 160.896,102.558 161.756 C 102.805 162.616,103.101 163.319,103.217 163.319 C 103.333 163.319,103.428 163.482,103.428 163.680 C 103.428 163.989,102.733 164.041,98.617 164.041 C 95.570 164.041,93.806 163.953,93.806 163.800 C 93.806 163.668,93.909 163.560,94.034 163.560 C 94.160 163.560,94.445 162.910,94.667 162.117 C 94.890 161.323,95.154 160.673,95.253 160.673 C 95.352 160.673,95.556 160.186,95.706 159.591 C 95.855 158.996,96.071 158.509,96.185 158.509 C 96.299 158.509,96.594 157.805,96.840 156.945 C 97.087 156.085,97.368 155.382,97.465 155.382 C 97.562 155.382,97.814 154.787,98.026 154.059 C 98.416 152.719,98.770 152.390,98.998 153.157 M198.216 180.694 C 197.411 181.520,196.753 182.277,196.753 182.378 C 196.753 182.758,201.088 182.587,201.236 182.201 C 201.312 182.002,201.498 181.839,201.649 181.838 C 201.880 181.836,203.230 180.886,204.390 179.910 C 205.062 179.343,204.602 179.194,202.185 179.194 L 199.680 179.194 198.216 180.694 M165.301 183.889 C 164.473 184.069,163.626 184.385,163.420 184.592 C 163.213 184.798,162.933 184.967,162.797 184.967 C 161.812 184.967,159.471 188.459,159.471 189.928 C 159.471 190.242,159.363 190.499,159.230 190.499 C 159.091 190.499,158.990 191.261,158.990 192.303 C 158.990 193.345,159.091 194.107,159.230 194.107 C 159.363 194.107,159.471 194.321,159.471 194.583 C 159.471 195.273,160.208 197.009,160.717 197.518 C 160.958 197.759,161.155 198.051,161.155 198.168 C 161.155 198.285,161.344 198.444,161.575 198.522 C 162.048 198.680,162.783 199.137,163.247 199.559 C 163.416 199.714,163.908 199.916,164.339 200.008 C 164.770 200.100,165.261 200.287,165.429 200.422 C 165.817 200.735,171.013 200.748,171.222 200.437 C 171.307 200.309,171.884 200.066,172.504 199.895 C 173.124 199.725,173.689 199.435,173.759 199.251 C 173.830 199.068,174.026 198.917,174.196 198.916 C 174.563 198.915,176.789 196.659,176.789 196.289 C 176.789 196.147,176.636 196.031,176.448 196.031 C 176.261 196.031,176.071 195.945,176.027 195.839 C 175.983 195.733,175.433 195.361,174.804 195.014 L 173.661 194.381 172.533 195.462 C 171.913 196.056,171.101 196.604,170.730 196.678 C 170.358 196.752,170.054 196.908,170.054 197.023 C 170.054 197.139,169.296 197.234,168.370 197.234 C 167.408 197.234,166.687 197.131,166.687 196.993 C 166.687 196.861,166.519 196.753,166.314 196.753 C 165.156 196.753,163.431 195.198,163.180 193.927 C 163.095 193.497,162.929 193.145,162.811 193.145 C 162.694 193.145,162.598 192.658,162.598 192.063 C 162.598 191.467,162.692 190.980,162.808 190.980 C 162.924 190.980,163.083 190.659,163.162 190.265 C 163.830 186.924,170.832 185.912,172.999 188.843 C 173.603 189.661,174.327 189.731,175.113 189.049 C 175.422 188.781,175.926 188.499,176.232 188.422 C 176.568 188.338,176.789 188.102,176.789 187.828 C 176.789 187.355,174.615 184.967,174.184 184.967 C 174.048 184.967,173.769 184.799,173.565 184.595 C 172.633 183.663,168.118 183.277,165.301 183.889 M60.670 192.123 L 60.734 200.481 62.538 200.481 L 64.342 200.481 64.408 196.933 L 64.475 193.385 68.557 193.385 L 72.640 193.385 72.640 191.822 L 72.640 190.259 68.551 190.259 L 64.462 190.259 64.462 188.695 L 64.462 187.132 69.272 187.132 L 74.083 187.132 74.083 185.448 L 74.083 183.764 67.345 183.764 L 60.607 183.764 60.670 192.123 M82.020 184.041 C 81.425 184.181,80.884 184.372,80.818 184.465 C 80.752 184.558,80.367 184.767,79.964 184.930 C 79.005 185.317,77.243 187.037,77.060 187.764 C 76.982 188.078,76.830 188.334,76.724 188.334 C 76.359 188.334,75.953 191.715,76.122 193.348 C 76.329 195.350,77.024 196.837,78.330 198.076 C 79.793 199.464,79.911 199.545,80.954 199.878 C 81.475 200.044,82.107 200.286,82.359 200.416 C 82.934 200.712,88.193 200.719,88.586 200.424 C 88.745 200.305,89.336 200.062,89.898 199.885 C 90.460 199.707,90.920 199.479,90.920 199.376 C 90.920 199.274,91.157 199.115,91.446 199.024 C 91.980 198.854,93.566 197.323,93.566 196.977 C 93.566 196.873,93.709 196.644,93.883 196.469 C 94.921 195.430,95.075 188.873,94.080 188.094 C 93.841 187.907,93.326 187.056,93.170 186.590 C 93.092 186.359,92.933 186.170,92.816 186.170 C 92.699 186.170,92.385 185.950,92.117 185.683 C 90.560 184.126,85.289 183.269,82.020 184.041 M98.193 192.108 L 98.256 200.481 100.000 200.552 L 101.744 200.622 101.744 197.365 L 101.744 194.107 104.859 194.107 C 109.450 194.107,109.681 194.304,109.681 198.207 L 109.681 200.601 111.485 200.601 L 113.289 200.601 113.279 197.895 C 113.266 194.725,113.015 193.169,112.447 192.754 C 112.067 192.476,112.073 192.418,112.540 191.916 C 113.187 191.222,113.377 190.160,113.239 188.014 C 113.108 185.971,112.864 185.518,111.394 184.587 L 110.284 183.885 104.207 183.809 L 98.130 183.734 98.193 192.108 M117.378 192.193 L 117.378 200.622 119.122 200.552 L 120.866 200.481 120.932 196.569 C 121.003 192.368,121.250 191.932,122.194 194.348 C 122.374 194.811,122.586 195.244,122.663 195.310 C 122.740 195.376,123.006 195.890,123.254 196.452 C 123.502 197.014,123.788 197.474,123.890 197.474 C 123.992 197.474,124.201 197.853,124.354 198.316 C 124.506 198.779,124.708 199.158,124.801 199.158 C 124.894 199.158,125.092 199.483,125.242 199.880 C 125.557 200.715,128.202 201.037,128.202 200.241 C 128.202 200.042,128.283 199.879,128.382 199.878 C 128.482 199.877,128.682 199.633,128.827 199.337 C 128.972 199.040,129.500 198.040,130.000 197.114 C 130.500 196.188,131.326 194.635,131.835 193.664 L 132.761 191.898 132.827 196.189 L 132.892 200.481 134.516 200.552 L 136.140 200.623 136.140 192.183 L 136.140 183.743 134.428 183.814 L 132.717 183.885 132.341 184.847 C 132.134 185.376,131.841 185.885,131.689 185.977 C 131.538 186.070,131.269 186.584,131.092 187.120 C 130.916 187.656,130.695 188.094,130.602 188.094 C 130.508 188.094,130.246 188.581,130.019 189.176 C 129.791 189.771,129.515 190.259,129.403 190.259 C 129.292 190.259,129.076 190.637,128.924 191.100 C 128.771 191.563,128.573 191.943,128.484 191.945 C 128.395 191.946,128.109 192.433,127.847 193.027 C 127.586 193.621,127.289 194.107,127.186 194.107 C 127.083 194.107,126.999 194.269,126.999 194.468 C 126.999 195.200,126.618 194.768,125.822 193.136 C 125.373 192.215,124.931 191.461,124.839 191.461 C 124.746 191.461,124.528 191.028,124.354 190.499 C 124.179 189.970,123.961 189.537,123.870 189.537 C 123.779 189.537,123.504 189.050,123.258 188.455 C 123.013 187.859,122.737 187.372,122.645 187.372 C 122.553 187.372,122.283 186.831,122.045 186.170 C 121.807 185.508,121.523 184.967,121.414 184.967 C 121.304 184.967,121.112 184.696,120.986 184.366 C 120.772 183.803,120.649 183.764,119.068 183.764 L 117.378 183.764 117.378 192.193 M146.001 184.726 C 145.827 185.256,145.607 185.689,145.514 185.689 C 145.421 185.689,145.150 186.200,144.911 186.824 C 144.673 187.449,144.384 188.071,144.270 188.207 C 143.891 188.660,141.191 194.186,141.191 194.510 C 141.191 194.685,141.097 194.829,140.983 194.829 C 140.868 194.829,140.581 195.343,140.343 195.971 C 140.106 196.600,139.843 197.168,139.758 197.234 C 139.406 197.510,138.284 200.133,138.423 200.358 C 138.505 200.492,139.441 200.601,140.503 200.601 L 142.432 200.601 142.810 199.639 C 143.018 199.110,143.262 198.677,143.353 198.677 C 143.444 198.677,143.668 198.217,143.851 197.655 C 144.371 196.053,144.423 196.031,147.805 196.031 C 151.214 196.031,151.219 196.033,151.884 197.775 C 152.124 198.404,152.392 198.918,152.480 198.918 C 152.568 198.918,152.776 199.296,152.944 199.759 L 153.248 200.601 155.164 200.601 C 157.025 200.601,157.914 200.185,157.139 199.675 C 157.008 199.589,156.707 199.005,156.470 198.376 C 156.232 197.748,155.966 197.234,155.878 197.234 C 155.790 197.234,155.523 196.693,155.285 196.031 C 155.047 195.370,154.769 194.829,154.667 194.829 C 154.566 194.829,154.346 194.342,154.179 193.746 C 154.013 193.151,153.803 192.664,153.714 192.664 C 153.625 192.664,153.358 192.123,153.120 191.461 C 152.882 190.800,152.613 190.259,152.521 190.259 C 152.430 190.259,152.152 189.663,151.905 188.936 C 151.658 188.208,151.375 187.613,151.278 187.613 C 151.180 187.613,150.906 187.072,150.668 186.410 C 150.430 185.749,150.159 185.207,150.066 185.207 C 149.973 185.207,149.784 184.883,149.645 184.486 C 149.401 183.786,149.348 183.764,147.856 183.764 L 146.319 183.764 146.001 184.726 M180.156 192.193 L 180.156 200.622 181.900 200.552 L 183.644 200.481 183.707 192.123 L 183.771 183.764 181.963 183.764 L 180.156 183.764 180.156 192.193 M193.362 183.989 C 191.403 184.371,188.094 186.746,188.094 187.769 C 188.094 187.926,187.988 188.090,187.858 188.134 C 186.978 188.433,186.990 196.272,187.870 196.272 C 187.975 196.272,188.135 196.504,188.225 196.788 C 188.437 197.455,189.797 198.815,190.464 199.027 C 190.748 199.117,190.980 199.274,190.980 199.376 C 190.980 199.479,191.440 199.707,192.002 199.885 C 192.565 200.062,193.159 200.308,193.323 200.432 C 193.722 200.733,198.952 200.721,199.538 200.418 C 199.792 200.287,200.426 200.044,200.946 199.878 C 201.989 199.545,202.107 199.464,203.571 198.076 C 204.877 196.837,205.571 195.350,205.778 193.348 C 205.947 191.715,205.541 188.334,205.176 188.334 C 205.070 188.334,204.919 188.078,204.840 187.764 C 204.645 186.986,202.827 185.265,201.866 184.948 C 201.435 184.805,201.082 184.604,201.082 184.500 C 201.082 183.926,195.557 183.560,193.362 183.989 M209.260 192.183 L 209.260 200.601 211.064 200.601 L 212.868 200.601 212.881 195.250 C 212.893 190.142,212.912 189.925,213.302 190.489 C 213.526 190.814,214.035 191.430,214.432 191.857 C 214.829 192.285,215.640 193.187,216.236 193.862 C 216.831 194.538,217.735 195.543,218.244 196.096 C 218.753 196.649,219.295 197.275,219.447 197.488 C 219.599 197.701,220.261 198.488,220.918 199.238 L 222.112 200.601 223.624 200.601 L 225.135 200.601 225.135 192.183 L 225.135 183.764 223.331 183.764 L 221.527 183.764 221.527 188.815 C 221.527 191.594,221.482 193.867,221.426 193.867 C 221.257 193.867,219.844 192.399,219.844 192.224 C 219.844 192.134,219.275 191.452,218.581 190.709 C 217.886 189.965,216.831 188.791,216.236 188.100 C 215.640 187.409,214.829 186.495,214.432 186.069 C 214.035 185.643,213.450 184.950,213.133 184.529 C 212.583 183.800,212.478 183.764,210.908 183.764 L 209.260 183.764 209.260 192.183 M87.232 187.397 C 88.070 187.543,88.755 187.762,88.755 187.884 C 88.755 188.006,89.029 188.210,89.363 188.337 C 89.697 188.464,90.042 188.759,90.130 188.992 C 90.217 189.226,90.430 189.525,90.603 189.657 C 91.454 190.309,91.256 193.882,90.308 194.984 C 89.983 195.362,89.718 195.747,89.718 195.841 C 89.718 195.935,89.176 196.204,88.515 196.439 C 87.853 196.674,87.312 196.949,87.312 197.050 C 87.312 197.309,84.002 197.281,83.841 197.021 C 83.769 196.903,83.356 196.738,82.925 196.654 C 79.116 195.909,78.642 190.730,82.123 187.900 C 82.948 187.230,85.072 187.021,87.232 187.397 M108.638 187.387 C 109.444 187.693,109.675 188.014,109.670 188.815 C 109.661 190.224,109.272 190.371,105.342 190.461 L 101.744 190.543 101.744 188.837 L 101.744 187.132 104.855 187.132 C 106.566 187.132,108.269 187.247,108.638 187.387 M198.150 187.364 C 199.548 187.629,200.363 188.192,201.663 189.790 C 202.171 190.415,202.369 193.738,201.917 194.059 C 201.786 194.152,201.477 194.614,201.229 195.086 C 200.824 195.860,199.455 196.753,198.675 196.753 C 198.544 196.753,198.437 196.861,198.437 196.993 C 198.437 197.134,197.635 197.234,196.512 197.234 C 195.454 197.234,194.588 197.140,194.588 197.025 C 194.588 196.910,194.098 196.678,193.500 196.511 C 192.743 196.299,192.288 195.996,192.005 195.517 C 191.781 195.139,191.521 194.829,191.427 194.829 C 190.735 194.829,190.632 190.405,191.309 189.720 C 191.473 189.553,191.681 189.226,191.769 188.992 C 191.858 188.759,192.228 188.454,192.593 188.316 C 192.957 188.177,193.320 187.960,193.398 187.833 C 193.734 187.289,196.380 187.028,198.150 187.364 M148.424 190.432 C 148.587 190.925,148.866 191.474,149.044 191.652 C 149.758 192.366,149.430 192.664,147.925 192.664 C 146.803 192.664,146.482 192.584,146.482 192.303 C 146.482 192.105,146.569 191.942,146.675 191.942 C 146.781 191.942,147.063 191.401,147.301 190.740 C 147.818 189.302,148.032 189.244,148.424 190.432 " stroke="none" fill="#04aca4" fill-rule="evenodd"></path><path id="path2" d="M136.140 69.276 C 136.140 69.410,135.592 70.033,134.923 70.659 C 134.253 71.285,132.819 72.704,131.736 73.810 C 130.652 74.917,129.626 75.945,129.455 76.095 C 129.284 76.245,128.256 77.273,127.170 78.379 C 126.084 79.485,125.059 80.513,124.892 80.664 C 124.637 80.894,121.655 83.865,120.866 84.676 C 120.734 84.812,119.705 85.835,118.581 86.949 C 117.456 88.064,116.025 89.495,115.399 90.128 C 114.774 90.762,113.745 91.793,113.114 92.418 C 112.483 93.043,111.455 94.072,110.829 94.703 C 110.204 95.334,109.175 96.354,108.544 96.969 C 107.913 97.585,106.892 98.613,106.275 99.254 C 105.658 99.896,104.603 100.940,103.930 101.573 C 103.257 102.207,102.706 102.822,102.706 102.940 C 102.706 103.058,102.488 103.224,102.221 103.308 C 101.955 103.393,101.782 103.536,101.837 103.625 C 101.893 103.715,101.621 104.059,101.233 104.390 C 100.845 104.720,99.746 105.778,98.791 106.740 C 97.835 107.702,96.783 108.762,96.452 109.095 C 96.121 109.428,95.283 110.260,94.588 110.944 C 93.894 111.629,93.325 112.266,93.325 112.361 C 93.325 112.626,100.522 119.784,100.788 119.784 C 100.917 119.784,101.022 119.892,101.022 120.024 C 101.022 120.338,107.683 126.999,107.998 126.999 C 108.130 126.999,108.238 127.099,108.238 127.221 C 108.238 127.522,109.560 128.826,110.060 129.017 C 110.311 129.114,110.660 128.968,110.995 128.627 C 111.288 128.327,112.005 127.646,112.589 127.114 C 113.173 126.581,113.894 125.836,114.191 125.458 C 114.489 125.079,114.732 124.835,114.732 124.914 C 114.732 125.059,115.842 123.976,116.809 122.887 C 117.754 121.824,122.369 117.378,122.529 117.378 C 122.775 117.378,124.268 115.823,124.579 115.242 C 124.733 114.954,124.962 114.782,125.087 114.860 C 125.213 114.938,125.316 114.833,125.316 114.626 C 125.316 114.420,125.414 114.251,125.535 114.251 C 125.656 114.251,128.198 111.816,131.185 108.839 C 134.172 105.863,136.775 103.428,136.969 103.428 C 137.374 103.428,139.275 105.263,139.077 105.461 C 139.005 105.533,139.072 105.592,139.226 105.592 C 139.518 105.592,140.486 106.454,140.353 106.595 C 140.311 106.639,140.428 106.814,140.614 106.985 C 140.799 107.155,140.950 107.237,140.950 107.165 C 140.950 107.094,141.167 107.252,141.431 107.517 C 141.696 107.781,141.912 108.112,141.912 108.252 C 141.912 108.392,141.993 108.469,142.093 108.424 C 142.192 108.378,142.616 108.696,143.034 109.131 C 143.453 109.566,143.753 109.922,143.701 109.922 C 143.649 109.922,148.040 114.360,153.458 119.784 C 158.876 125.207,163.357 129.645,163.417 129.645 C 163.562 129.645,180.637 112.603,180.637 112.459 C 180.637 112.398,170.894 102.601,158.986 90.690 C 137.600 69.297,136.140 67.928,136.140 69.276 M252.556 169.787 L 252.556 200.308 253.371 200.403 C 253.820 200.456,254.307 200.459,254.454 200.410 C 254.647 200.345,254.720 191.937,254.720 169.794 L 254.720 139.266 253.638 139.266 L 252.556 139.266 252.556 169.787 M268.768 141.877 C 269.278 142.451,269.393 142.503,269.393 142.161 C 269.393 142.034,269.149 141.801,268.851 141.645 C 268.313 141.363,268.313 141.364,268.768 141.877 M332.275 147.324 C 332.275 150.631,332.309 152.018,332.350 150.405 C 332.392 148.792,332.392 146.086,332.351 144.392 C 332.309 142.697,332.275 144.017,332.275 147.324 M310.042 153.217 C 310.184 153.482,310.421 153.698,310.569 153.698 C 310.717 153.698,310.642 153.482,310.403 153.217 C 310.163 152.952,309.926 152.736,309.876 152.736 C 309.826 152.736,309.900 152.952,310.042 153.217 M319.768 169.453 C 319.767 172.760,319.801 174.146,319.843 172.534 C 319.884 170.921,319.884 168.215,319.843 166.520 C 319.802 164.826,319.768 166.146,319.768 169.453 M282.330 169.356 C 282.292 172.280,282.340 174.796,282.438 174.949 C 282.535 175.101,282.616 172.709,282.618 169.633 C 282.620 166.557,282.572 164.041,282.510 164.041 C 282.449 164.041,282.368 166.433,282.330 169.356 M376.094 164.991 C 376.241 165.196,376.481 165.580,376.628 165.845 C 376.774 166.109,376.898 166.197,376.902 166.039 C 376.906 165.881,376.666 165.497,376.368 165.185 C 376.070 164.874,375.947 164.786,376.094 164.991 M304.630 167.408 C 304.712 167.541,304.664 167.649,304.524 167.649 C 304.384 167.649,304.269 167.770,304.269 167.919 C 304.269 168.105,304.381 168.096,304.630 167.889 C 305.049 167.542,305.104 167.168,304.736 167.168 C 304.596 167.168,304.548 167.276,304.630 167.408 M312.545 172.013 C 312.089 172.527,312.089 172.528,312.628 172.245 C 312.925 172.089,313.169 171.857,313.169 171.729 C 313.169 171.388,313.054 171.440,312.545 172.013 M325.299 191.581 C 325.299 194.756,325.334 196.022,325.375 194.394 C 325.417 192.766,325.417 190.168,325.375 188.621 C 325.333 187.074,325.299 188.406,325.299 191.581 M287.349 188.274 C 287.288 188.373,287.497 188.470,287.815 188.489 C 288.132 188.508,288.331 188.427,288.258 188.309 C 288.097 188.048,287.503 188.025,287.349 188.274 " stroke="none" fill="#2c6cd4" fill-rule="evenodd"></path><path id="path3" d="M154.203 51.737 C 145.988 59.951,139.266 66.731,139.266 66.803 C 139.266 67.263,155.855 83.464,156.325 83.464 C 156.707 83.464,158.740 81.588,163.363 76.969 C 166.939 73.397,169.938 70.475,170.028 70.475 C 170.118 70.475,183.338 83.625,199.407 99.698 C 216.607 116.901,228.802 128.921,229.059 128.922 C 229.497 128.924,245.580 113.062,245.580 112.628 C 245.580 112.202,169.989 36.801,169.562 36.801 C 169.323 36.801,162.635 43.304,154.203 51.737 " stroke="none" fill="#f4cc3c" fill-rule="evenodd"></path><path id="path4" d="M262.177 141.448 C 261.421 141.766,260.493 142.625,260.493 143.008 C 260.493 143.168,260.288 143.353,260.038 143.418 C 259.726 143.500,259.531 143.844,259.418 144.515 C 259.327 145.053,259.118 145.604,258.954 145.741 C 258.589 146.043,258.596 148.326,258.964 149.008 C 259.107 149.272,259.301 149.811,259.396 150.205 C 259.562 150.899,261.239 152.736,261.706 152.736 C 261.833 152.736,261.936 152.844,261.936 152.977 C 261.936 153.109,262.146 153.217,262.403 153.217 C 262.660 153.217,262.940 153.331,263.026 153.470 C 263.361 154.012,267.627 153.590,268.551 152.923 C 270.234 151.709,270.328 151.186,269.084 149.942 C 268.318 149.176,267.468 149.014,267.468 149.635 C 267.468 149.753,267.306 149.850,267.108 149.850 C 266.909 149.850,266.747 149.944,266.747 150.059 C 266.747 150.449,265.020 150.560,264.209 150.221 C 263.774 150.039,263.368 149.941,263.307 150.003 C 263.245 150.064,263.053 149.757,262.881 149.321 C 262.525 148.422,262.387 145.761,262.696 145.761 C 262.807 145.761,262.900 145.625,262.903 145.460 C 262.921 144.131,265.709 143.584,266.890 144.678 C 267.916 145.630,269.696 144.962,269.887 143.555 C 269.981 142.863,269.860 142.393,269.589 142.393 C 269.432 142.393,269.045 142.150,268.729 141.853 C 268.075 141.239,263.367 140.948,262.177 141.448 M270.892 147.384 L 270.956 153.578 275.406 153.578 L 279.856 153.578 279.856 152.255 L 279.856 150.932 277.029 150.864 L 274.203 150.797 274.203 149.602 L 274.203 148.406 276.729 148.406 L 279.254 148.406 279.254 147.084 L 279.254 145.761 276.729 145.761 L 274.203 145.761 274.203 144.799 L 274.203 143.836 277.048 143.836 L 279.894 143.836 279.947 142.514 L 280.001 141.191 275.414 141.191 L 270.828 141.191 270.892 147.384 M281.475 147.384 L 281.539 153.578 283.103 153.578 L 284.666 153.578 284.787 150.760 C 284.915 147.745,284.979 147.658,285.989 149.128 C 286.307 149.591,286.638 150.024,286.723 150.090 C 286.809 150.156,287.019 150.481,287.189 150.812 C 287.522 151.458,287.718 151.709,288.836 152.916 C 289.470 153.601,289.712 153.698,290.781 153.698 L 292.002 153.698 292.002 147.444 L 292.002 141.191 290.465 141.191 C 288.606 141.191,288.635 141.141,288.635 144.337 C 288.635 146.928,288.474 147.204,287.771 145.821 C 287.519 145.325,287.123 144.777,286.891 144.605 C 286.660 144.432,286.470 144.139,286.470 143.955 C 286.470 143.770,286.091 143.251,285.628 142.801 C 285.165 142.352,284.787 141.871,284.787 141.733 C 284.787 141.354,284.164 141.191,282.718 141.191 L 281.411 141.191 281.475 147.384 M292.724 142.514 L 292.724 143.836 294.408 143.836 L 296.091 143.836 296.091 148.642 L 296.091 153.448 296.652 153.589 C 296.960 153.666,297.691 153.696,298.275 153.654 L 299.339 153.578 299.404 148.707 L 299.469 143.836 301.268 143.836 L 303.067 143.836 303.067 142.514 L 303.067 141.191 297.895 141.191 L 292.724 141.191 292.724 142.514 M303.548 147.296 L 303.548 153.402 304.089 153.547 C 306.328 154.146,306.915 153.724,306.915 151.514 C 306.915 150.166,306.946 150.090,307.500 150.090 C 308.065 150.090,309.802 151.847,309.802 152.418 C 309.802 153.169,310.961 153.725,312.417 153.672 C 314.138 153.610,314.374 153.107,313.289 151.818 C 312.959 151.425,312.688 150.998,312.688 150.870 C 312.688 150.741,312.461 150.347,312.183 149.994 C 311.906 149.642,311.770 149.369,311.883 149.389 C 312.335 149.470,312.688 149.355,312.688 149.128 C 312.688 148.996,312.913 148.663,313.188 148.388 C 313.462 148.113,313.628 147.734,313.556 147.546 C 313.484 147.358,313.529 147.204,313.658 147.204 C 313.969 147.204,313.958 144.147,313.646 143.954 C 313.512 143.871,313.464 143.702,313.540 143.579 C 313.616 143.456,313.589 143.355,313.481 143.355 C 313.372 143.355,313.176 143.114,313.046 142.818 C 312.915 142.523,312.556 142.157,312.247 142.004 C 311.938 141.852,311.565 141.607,311.417 141.459 C 311.242 141.284,309.824 141.191,307.348 141.191 L 303.548 141.191 303.548 147.296 M317.739 141.354 C 317.541 141.440,317.235 141.681,317.060 141.891 C 316.808 142.193,316.777 142.197,316.911 141.912 C 317.073 141.570,316.135 142.515,315.312 143.524 C 314.892 144.039,314.315 145.520,314.534 145.520 C 314.609 145.520,314.565 145.655,314.436 145.821 C 314.128 146.215,314.043 148.805,314.333 148.984 C 314.456 149.060,314.627 149.493,314.712 149.945 C 314.895 150.921,316.255 152.406,317.619 153.118 C 318.709 153.687,322.367 153.948,322.658 153.477 C 322.746 153.334,323.036 153.217,323.303 153.217 C 325.799 153.217,327.891 147.107,326.342 144.341 C 325.693 143.181,325.109 142.410,324.873 142.401 C 324.762 142.397,324.479 142.156,324.245 141.866 C 323.809 141.329,318.731 140.929,317.739 141.354 M332.467 147.384 L 332.532 153.578 336.320 153.652 C 338.453 153.694,340.108 153.632,340.108 153.510 C 340.108 153.391,340.541 153.151,341.070 152.977 C 341.600 152.802,342.032 152.567,342.032 152.455 C 342.032 152.343,342.313 152.009,342.655 151.712 C 343.342 151.116,344.034 149.688,343.811 149.327 C 343.732 149.200,343.858 148.957,344.091 148.787 C 344.559 148.445,344.450 145.965,343.960 145.802 C 343.824 145.757,343.776 145.618,343.852 145.495 C 344.010 145.240,342.977 142.812,342.790 142.998 C 342.724 143.065,342.474 142.820,342.235 142.455 C 341.995 142.090,341.717 141.783,341.615 141.772 C 341.514 141.761,341.126 141.625,340.754 141.471 C 340.335 141.297,338.615 141.191,336.240 141.191 L 332.403 141.191 332.467 147.384 M345.400 147.450 L 345.400 153.709 349.910 153.643 L 354.420 153.578 354.492 152.195 L 354.564 150.812 351.666 150.812 L 348.767 150.812 348.767 149.609 L 348.767 148.406 351.168 148.406 C 353.822 148.406,353.975 148.299,353.777 146.571 L 353.698 145.881 351.233 145.812 L 348.767 145.744 348.767 144.790 L 348.767 143.836 351.273 143.836 C 354.507 143.836,354.540 143.822,354.540 142.368 L 354.540 141.191 349.970 141.191 L 345.400 141.191 345.400 147.450 M309.840 144.266 C 310.992 145.465,309.852 147.444,308.009 147.444 L 306.915 147.444 306.915 145.607 L 306.915 143.770 308.295 143.932 C 309.054 144.022,309.749 144.172,309.840 144.266 M322.399 144.575 C 322.606 144.799,322.584 144.827,322.309 144.693 C 322.111 144.596,322.179 144.715,322.461 144.958 C 323.562 145.906,323.873 147.784,323.109 148.874 C 322.858 149.232,322.827 149.374,323.026 149.251 C 323.239 149.120,323.288 149.146,323.174 149.331 C 323.080 149.484,322.846 149.609,322.656 149.609 C 322.465 149.609,322.309 149.695,322.309 149.800 C 322.309 150.180,320.550 150.808,320.229 150.542 C 320.062 150.403,319.824 150.352,319.701 150.428 C 319.578 150.504,319.344 150.406,319.182 150.210 C 319.020 150.015,318.804 149.907,318.702 149.970 C 318.151 150.310,317.642 147.116,318.050 145.881 C 318.339 145.004,318.930 144.282,319.214 144.458 C 319.329 144.528,319.423 144.479,319.423 144.348 C 319.423 143.793,321.849 143.978,322.399 144.575 M339.363 144.500 C 340.507 145.346,341.162 148.385,340.314 148.909 C 340.178 148.993,340.077 149.158,340.090 149.275 C 340.136 149.712,339.372 150.331,338.788 150.331 C 338.456 150.331,338.184 150.439,338.184 150.571 C 338.184 150.704,337.643 150.812,336.981 150.812 L 335.779 150.812 335.779 147.291 L 335.779 143.770 337.259 143.904 C 338.164 143.986,338.981 144.218,339.363 144.500 M363.828 160.293 C 363.579 160.755,363.259 161.111,363.118 161.084 C 362.976 161.057,362.846 161.143,362.828 161.275 C 362.811 161.407,362.710 161.712,362.605 161.952 C 362.487 162.223,362.529 162.498,362.716 162.674 C 362.949 162.893,363.044 162.890,363.129 162.658 C 363.194 162.479,363.671 162.357,364.304 162.357 C 365.158 162.357,365.517 162.215,366.123 161.636 C 366.539 161.239,366.971 160.914,367.083 160.914 C 367.196 160.914,367.288 160.752,367.288 160.553 C 367.288 160.355,367.459 160.192,367.669 160.192 C 369.044 160.192,367.581 159.581,366.066 159.522 L 364.280 159.453 363.828 160.293 M262.898 163.361 C 262.898 163.470,262.749 163.560,262.567 163.560 C 262.385 163.560,262.099 163.725,261.931 163.926 C 261.764 164.128,261.580 164.245,261.521 164.187 C 261.280 163.945,259.552 166.049,259.409 166.759 C 259.148 168.058,259.023 168.382,258.828 168.262 C 258.539 168.083,258.671 170.835,258.978 171.377 C 259.128 171.642,259.382 172.214,259.544 172.649 C 259.705 173.084,260.039 173.548,260.286 173.680 C 260.532 173.812,260.734 174.075,260.734 174.265 C 260.734 174.467,261.187 174.742,261.830 174.929 C 262.433 175.105,262.893 175.352,262.852 175.478 C 262.725 175.869,267.057 175.905,267.344 175.515 C 267.479 175.332,267.859 175.125,268.190 175.055 C 268.521 174.984,268.967 174.852,269.181 174.762 C 269.489 174.631,269.556 174.725,269.503 175.212 C 269.393 176.206,272.632 176.164,273.047 175.165 C 273.198 174.802,273.345 174.450,273.374 174.384 C 273.402 174.317,273.505 174.020,273.602 173.722 C 273.766 173.218,273.916 173.181,275.801 173.181 C 277.668 173.181,277.841 173.222,278.057 173.722 C 278.186 174.020,278.392 174.426,278.515 174.624 C 278.638 174.823,278.797 175.174,278.869 175.406 C 279.030 175.929,282.004 176.035,282.241 175.526 C 282.353 175.286,282.409 175.286,282.522 175.526 C 282.608 175.712,283.154 175.827,283.945 175.827 C 285.919 175.827,285.989 175.764,285.989 173.997 L 285.989 172.459 287.793 172.429 C 290.115 172.391,290.057 172.401,290.324 171.978 C 290.449 171.780,290.554 171.716,290.556 171.835 C 290.558 171.955,290.776 171.857,291.040 171.618 C 291.305 171.378,291.525 171.280,291.530 171.400 C 291.535 171.520,291.856 170.885,292.244 169.989 C 293.176 167.835,292.674 164.602,291.329 164.107 C 291.104 164.024,290.866 163.894,290.800 163.818 C 290.357 163.310,289.330 163.146,286.314 163.100 C 283.989 163.064,282.857 163.134,282.742 163.319 C 282.649 163.469,282.580 166.209,282.588 169.409 C 282.597 173.222,282.524 175.060,282.375 174.744 C 281.699 173.311,281.105 171.836,281.139 171.678 C 281.161 171.578,281.079 171.497,280.957 171.497 C 280.835 171.497,280.659 171.147,280.565 170.719 C 280.471 170.291,280.237 169.701,280.045 169.409 C 279.854 169.116,279.713 168.844,279.733 168.804 C 279.753 168.764,279.653 168.427,279.512 168.054 C 279.370 167.682,279.254 167.222,279.254 167.032 C 279.254 166.842,279.135 166.687,278.988 166.687 C 278.842 166.687,278.786 166.520,278.864 166.317 C 278.942 166.112,278.856 165.889,278.671 165.818 C 278.486 165.748,278.268 165.400,278.185 165.046 C 277.752 163.189,277.632 163.079,276.036 163.079 C 274.621 163.079,274.048 163.392,273.830 164.281 C 273.762 164.562,273.393 165.443,272.875 166.566 C 272.569 167.228,272.179 168.256,272.007 168.851 C 271.836 169.447,271.560 170.073,271.395 170.243 C 271.078 170.568,270.599 172.065,270.597 172.734 C 270.596 172.952,270.433 173.192,270.235 173.268 C 270.036 173.344,269.874 173.319,269.874 173.212 C 269.874 172.330,267.829 170.903,267.563 171.599 C 267.333 172.196,265.843 172.752,264.992 172.558 C 264.568 172.461,264.005 172.364,263.740 172.341 C 262.896 172.268,261.843 167.889,262.670 167.889 C 262.767 167.889,262.911 167.631,262.990 167.315 C 263.099 166.883,263.358 166.699,264.039 166.572 C 264.536 166.479,265.058 166.308,265.199 166.192 C 265.513 165.933,267.468 166.855,267.468 167.262 C 267.468 167.908,268.443 167.569,269.258 166.639 C 269.729 166.102,270.114 165.564,270.114 165.445 C 270.114 165.061,268.682 163.812,268.065 163.657 C 267.737 163.575,267.468 163.406,267.468 163.281 C 267.468 163.150,266.495 163.077,265.183 163.108 C 263.927 163.138,262.898 163.252,262.898 163.361 M296.861 163.367 C 296.702 163.526,296.572 163.851,296.572 164.089 C 296.572 164.327,296.482 164.522,296.372 164.522 C 296.262 164.522,296.170 164.657,296.169 164.823 C 296.168 164.988,295.873 165.762,295.514 166.542 C 295.156 167.323,294.801 168.270,294.725 168.647 C 294.650 169.024,294.502 169.333,294.397 169.333 C 294.291 169.333,294.130 169.684,294.038 170.114 C 293.946 170.544,293.788 171.004,293.687 171.137 C 293.586 171.269,293.252 172.081,292.944 172.940 C 292.637 173.800,292.239 174.615,292.060 174.751 C 291.875 174.892,291.804 175.176,291.895 175.412 C 292.149 176.074,295.610 176.025,295.610 175.360 C 295.610 175.103,295.710 174.831,295.832 174.756 C 295.954 174.680,296.125 174.295,296.212 173.900 L 296.370 173.181 298.499 173.181 L 300.628 173.181 301.098 174.444 L 301.568 175.707 303.194 175.778 L 304.819 175.850 304.675 174.800 C 304.596 174.223,304.202 173.054,303.799 172.203 C 303.397 171.352,303.067 170.412,303.067 170.114 C 303.067 169.817,302.986 169.573,302.886 169.572 C 302.701 169.571,302.239 168.486,301.480 166.266 C 301.242 165.571,300.961 165.003,300.854 165.003 C 300.748 165.003,300.658 164.759,300.654 164.462 C 300.636 163.213,297.826 162.402,296.861 163.367 M308.331 163.472 C 308.182 163.653,307.907 163.800,307.722 163.800 C 307.211 163.800,305.232 165.725,305.232 166.222 C 305.232 166.462,305.128 166.722,305.001 166.800 C 304.875 166.879,304.826 167.084,304.892 167.257 C 304.959 167.430,304.846 167.711,304.641 167.880 C 304.064 168.359,304.153 170.572,304.799 171.808 C 305.090 172.365,305.309 172.895,305.285 172.987 C 305.261 173.078,305.488 173.349,305.790 173.588 C 306.092 173.827,306.406 174.197,306.486 174.410 C 306.567 174.622,306.974 174.864,307.390 174.948 C 307.805 175.031,308.310 175.263,308.510 175.463 C 309.003 175.956,312.815 175.988,313.002 175.500 C 313.071 175.321,313.451 175.109,313.846 175.030 C 315.589 174.681,316.323 172.973,314.952 172.452 C 314.633 172.330,314.372 172.077,314.372 171.890 C 314.372 171.570,313.886 171.257,313.390 171.257 C 313.268 171.257,313.169 171.416,313.169 171.611 C 313.169 171.994,311.880 172.774,311.642 172.536 C 311.562 172.456,311.347 172.516,311.163 172.668 C 310.907 172.880,310.665 172.860,310.135 172.584 C 309.753 172.385,309.333 172.220,309.200 172.219 C 308.251 172.207,307.760 168.793,308.518 167.472 C 308.935 166.746,311.047 165.756,311.205 166.213 C 311.249 166.341,311.504 166.446,311.771 166.446 C 312.039 166.446,312.471 166.717,312.731 167.048 C 313.438 167.946,315.118 167.136,315.659 165.636 C 315.823 165.183,314.239 163.371,313.941 163.670 C 313.868 163.743,313.552 163.634,313.238 163.428 C 312.495 162.941,308.744 162.975,308.331 163.472 M316.697 163.239 C 316.609 163.327,316.536 166.196,316.536 169.613 L 316.536 175.827 318.100 175.827 L 319.663 175.827 319.663 169.453 L 319.663 163.079 318.260 163.079 C 317.488 163.079,316.785 163.151,316.697 163.239 M320.550 163.234 C 320.459 163.325,320.385 163.977,320.385 164.682 L 320.385 165.965 322.069 165.965 L 323.752 165.965 323.752 170.896 L 323.752 175.827 325.436 175.827 L 327.120 175.827 327.120 170.896 L 327.120 165.965 328.936 165.965 L 330.752 165.965 330.679 164.582 L 330.607 163.199 325.661 163.134 C 322.941 163.098,320.641 163.144,320.550 163.234 M334.035 163.245 C 333.666 163.341,333.494 163.761,333.585 164.342 C 333.601 164.441,333.507 164.522,333.376 164.522 C 333.246 164.522,333.069 164.955,332.985 165.484 C 332.900 166.013,332.748 166.446,332.647 166.446 C 332.424 166.446,331.816 167.937,331.567 169.092 C 331.468 169.555,331.190 170.185,330.949 170.492 C 330.708 170.799,330.439 171.531,330.351 172.119 C 330.262 172.717,330.017 173.290,329.798 173.418 C 329.582 173.544,329.513 173.652,329.645 173.658 C 329.778 173.664,329.747 173.758,329.577 173.866 C 329.407 173.973,329.203 174.459,329.124 174.944 L 328.981 175.827 330.657 175.827 L 332.333 175.827 332.892 174.504 L 333.452 173.181 335.577 173.181 C 337.543 173.181,337.703 173.217,337.703 173.662 C 337.703 173.927,337.809 174.143,337.939 174.143 C 338.069 174.143,338.248 174.441,338.337 174.805 C 338.558 175.708,338.796 175.819,340.529 175.823 C 342.023 175.827,342.723 175.080,341.776 174.494 C 341.634 174.406,341.578 174.179,341.651 173.989 C 341.724 173.799,341.617 173.580,341.413 173.502 C 341.209 173.423,341.100 173.211,341.169 173.030 C 341.239 172.848,341.185 172.700,341.049 172.700 C 340.913 172.700,340.856 172.612,340.922 172.505 C 340.988 172.398,340.724 171.642,340.335 170.825 C 339.946 170.008,339.627 169.175,339.627 168.975 C 339.627 168.775,339.531 168.611,339.413 168.611 C 339.296 168.611,339.125 168.211,339.033 167.722 C 338.941 167.233,338.657 166.567,338.402 166.242 C 338.146 165.918,337.870 165.232,337.788 164.717 C 337.559 163.287,336.085 162.709,334.035 163.245 M345.400 163.363 C 345.400 163.485,345.075 163.698,344.678 163.836 C 344.281 163.975,343.957 164.186,343.957 164.305 C 343.957 164.424,343.821 164.522,343.656 164.522 C 343.245 164.523,341.792 166.699,341.792 167.313 C 341.792 167.586,341.720 167.881,341.633 167.969 C 341.345 168.257,341.308 169.574,341.560 170.605 C 341.696 171.162,341.860 171.863,341.925 172.163 C 342.133 173.120,343.740 174.801,344.671 175.035 C 345.003 175.118,345.419 175.330,345.595 175.507 C 346.076 175.987,349.937 175.953,350.123 175.466 C 350.200 175.268,350.505 175.105,350.802 175.105 C 351.418 175.105,353.106 173.625,352.659 173.476 C 352.501 173.423,352.435 173.278,352.512 173.154 C 352.658 172.918,351.426 171.668,350.933 171.551 C 350.777 171.514,350.295 171.703,349.861 171.971 C 349.427 172.240,348.934 172.459,348.765 172.459 C 348.597 172.459,348.316 172.649,348.140 172.880 C 347.957 173.122,347.817 173.177,347.813 173.010 C 347.809 172.850,347.372 172.602,346.843 172.459 C 346.314 172.317,345.881 172.104,345.881 171.986 C 345.881 171.869,345.705 171.597,345.491 171.382 C 344.913 170.805,344.923 168.673,345.508 167.584 C 345.973 166.719,347.968 165.711,348.281 166.183 C 348.350 166.287,348.701 166.444,349.061 166.532 C 349.421 166.620,349.831 166.908,349.971 167.171 C 350.346 167.871,350.860 167.759,351.790 166.773 C 353.106 165.378,352.585 164.213,350.282 163.400 C 349.263 163.040,345.400 163.010,345.400 163.363 M353.578 169.442 L 353.578 175.827 354.961 175.823 C 357.084 175.817,356.962 176.228,356.889 169.316 L 356.825 163.199 355.201 163.128 L 353.578 163.057 353.578 169.442 M361.762 163.522 C 361.635 163.741,361.527 163.837,361.523 163.734 C 361.509 163.384,360.194 164.240,359.328 165.164 C 357.985 166.596,357.369 171.110,358.354 172.298 C 358.503 172.477,358.554 172.695,358.467 172.782 C 358.379 172.869,358.420 172.940,358.557 172.940 C 358.694 172.940,359.089 173.368,359.435 173.891 C 359.908 174.607,360.277 174.881,360.929 175.004 C 361.405 175.093,361.851 175.315,361.921 175.496 C 362.112 175.995,366.287 175.967,366.479 175.466 C 366.556 175.268,366.881 175.105,367.203 175.105 C 367.985 175.105,369.655 173.434,369.851 172.455 C 369.934 172.038,370.149 171.640,370.329 171.571 C 370.798 171.391,370.789 167.578,370.318 167.187 C 370.133 167.033,369.908 166.617,369.819 166.261 C 369.661 165.633,367.549 163.459,367.320 163.688 C 367.257 163.751,366.958 163.640,366.655 163.441 C 365.842 162.908,362.084 162.971,361.762 163.522 M372.018 163.239 C 371.930 163.327,371.858 166.196,371.858 169.613 L 371.858 175.827 373.542 175.827 C 374.468 175.827,375.213 175.746,375.197 175.646 C 374.907 173.808,375.278 169.863,375.707 170.230 C 375.971 170.457,376.188 170.788,376.188 170.965 C 376.188 171.143,376.566 171.688,377.029 172.175 C 377.492 172.662,377.932 173.250,378.007 173.482 C 378.083 173.713,378.245 173.903,378.369 173.903 C 378.492 173.903,378.593 174.022,378.593 174.167 C 378.593 174.898,380.087 175.827,381.264 175.827 L 382.441 175.827 382.441 169.453 L 382.441 163.079 381.058 163.082 C 379.079 163.088,379.100 163.054,379.022 166.335 C 378.956 169.112,378.941 169.187,378.577 168.491 C 377.902 167.197,377.520 166.687,377.228 166.687 C 377.071 166.687,376.876 166.480,376.796 166.227 C 376.656 165.786,375.674 164.389,374.880 163.500 C 374.503 163.078,372.374 162.884,372.018 163.239 M287.857 166.188 C 288.086 166.311,288.450 166.464,288.665 166.530 C 289.430 166.762,289.388 169.092,288.618 169.092 C 288.363 169.092,288.154 169.174,288.154 169.274 C 288.154 169.374,287.667 169.418,287.072 169.370 L 285.989 169.284 285.989 167.625 L 285.989 165.965 286.714 165.965 C 287.113 165.965,287.627 166.065,287.857 166.188 M365.364 166.528 C 367.658 167.095,367.442 172.459,365.126 172.459 C 364.873 172.459,364.560 172.649,364.430 172.880 C 364.205 173.281,364.186 173.281,364.031 172.880 C 363.942 172.649,363.656 172.459,363.395 172.459 C 361.014 172.459,360.746 166.988,363.105 166.546 C 363.556 166.461,363.988 166.290,364.065 166.167 C 364.149 166.031,364.315 166.028,364.483 166.161 C 364.637 166.281,365.033 166.447,365.364 166.528 M276.368 168.721 C 276.368 169.013,276.443 169.328,276.535 169.420 C 277.047 169.931,276.768 170.295,275.866 170.295 C 274.993 170.295,274.643 170.016,275.134 169.713 C 275.249 169.642,275.414 169.138,275.501 168.592 C 275.674 167.509,276.368 167.612,276.368 168.721 M336.098 168.892 C 336.186 169.242,336.324 169.701,336.405 169.912 C 336.525 170.224,336.369 170.295,335.564 170.295 C 334.846 170.295,334.576 170.196,334.576 169.934 C 334.576 169.735,334.670 169.573,334.786 169.573 C 334.901 169.573,335.066 169.135,335.151 168.599 C 335.325 167.514,335.788 167.658,336.098 168.892 M298.786 168.699 C 298.747 168.919,298.882 169.163,299.087 169.241 C 299.928 169.564,299.507 170.295,298.480 170.295 C 297.425 170.295,297.374 170.089,298.074 168.666 C 298.375 168.055,298.897 168.079,298.786 168.699 M259.531 191.572 L 259.531 197.956 260.834 197.956 C 262.845 197.956,262.898 197.906,262.898 196.034 L 262.898 194.404 265.330 194.306 C 267.373 194.224,267.815 194.135,268.096 193.751 C 268.280 193.499,268.431 193.393,268.431 193.516 C 268.431 193.638,268.706 193.332,269.043 192.836 C 269.381 192.340,269.591 191.827,269.510 191.697 C 269.430 191.568,269.479 191.461,269.619 191.461 C 269.771 191.461,269.874 190.854,269.874 189.954 C 269.874 187.997,269.329 186.930,268.002 186.290 C 267.453 186.025,267.001 185.683,266.996 185.530 C 266.990 185.333,265.900 185.242,263.259 185.220 L 259.531 185.188 259.531 191.572 M270.836 191.583 L 270.836 197.977 272.459 197.906 L 274.083 197.835 274.154 196.091 C 274.222 194.399,274.242 194.348,274.841 194.348 C 275.393 194.348,276.488 195.330,276.488 195.826 C 276.488 195.918,276.731 196.272,277.029 196.614 C 277.326 196.956,277.569 197.289,277.570 197.355 C 277.570 197.421,277.571 197.583,277.571 197.715 C 277.571 197.854,278.332 197.956,279.375 197.956 C 281.428 197.956,281.796 197.436,280.594 196.234 C 280.272 195.912,279.974 195.494,279.932 195.304 C 279.890 195.115,279.720 194.815,279.555 194.637 C 279.218 194.274,279.150 193.626,279.450 193.626 C 279.936 193.626,280.698 192.593,280.698 191.933 C 280.698 191.541,280.806 191.221,280.938 191.221 C 281.070 191.221,281.179 190.632,281.179 189.912 C 281.179 189.192,281.070 188.536,280.938 188.455 C 280.806 188.373,280.698 188.109,280.698 187.868 C 280.698 187.306,279.298 185.929,278.728 185.929 C 278.488 185.929,278.292 185.777,278.292 185.590 C 278.292 185.315,277.595 185.246,274.564 185.220 L 270.836 185.188 270.836 191.583 M285.437 185.526 C 285.365 185.714,285.000 185.943,284.626 186.036 C 283.941 186.205,282.563 187.474,282.803 187.713 C 282.873 187.784,282.753 187.910,282.536 187.994 C 282.319 188.077,282.141 188.341,282.141 188.581 C 282.141 188.820,282.005 189.061,281.840 189.116 C 281.363 189.275,281.471 194.348,281.951 194.348 C 282.056 194.348,282.141 194.506,282.141 194.699 C 282.141 195.236,284.461 197.474,285.018 197.474 C 285.287 197.474,285.508 197.583,285.508 197.715 C 285.508 197.858,286.430 197.956,287.793 197.956 C 289.156 197.956,290.078 197.858,290.078 197.715 C 290.078 197.583,290.268 197.474,290.499 197.474 C 290.731 197.474,291.235 197.203,291.619 196.873 C 292.003 196.542,292.398 196.272,292.497 196.272 C 292.744 196.272,293.686 194.641,293.686 194.214 C 293.686 194.023,293.787 193.867,293.911 193.867 C 294.197 193.867,294.188 189.578,293.901 189.401 C 293.783 189.328,293.686 189.058,293.686 188.801 C 293.686 188.544,293.590 188.334,293.472 188.334 C 293.354 188.334,293.191 188.091,293.109 187.793 C 292.922 187.109,291.376 185.929,290.666 185.929 C 290.371 185.929,290.073 185.781,290.003 185.600 C 289.817 185.115,285.621 185.047,285.437 185.526 M295.523 185.375 C 295.432 185.466,295.366 188.335,295.378 191.749 L 295.400 197.956 297.068 197.956 L 298.737 197.956 298.737 195.919 L 298.737 193.883 301.203 193.815 C 303.018 193.764,303.652 193.667,303.608 193.446 C 303.575 193.280,303.656 193.145,303.788 193.145 C 304.128 193.145,304.088 191.376,303.740 191.028 C 303.555 190.843,302.607 190.740,301.094 190.740 L 298.737 190.740 298.737 189.424 L 298.737 188.109 301.563 188.041 L 304.390 187.974 304.462 186.590 L 304.534 185.207 300.112 185.207 C 297.680 185.207,295.615 185.283,295.523 185.375 M305.288 191.513 L 305.352 197.835 309.862 197.901 L 314.372 197.966 314.372 196.518 L 314.372 195.069 311.485 195.069 L 308.599 195.069 308.599 193.995 L 308.599 192.921 311.064 192.853 L 313.530 192.784 313.602 191.521 L 313.675 190.259 311.137 190.259 L 308.599 190.259 308.599 189.176 L 308.599 188.094 311.339 188.094 C 314.318 188.094,314.372 188.068,314.372 186.651 C 314.372 185.216,314.480 185.248,309.659 185.218 L 305.223 185.190 305.288 191.513 M317.817 185.592 C 317.746 185.777,317.462 185.929,317.185 185.929 C 316.508 185.929,315.334 187.092,315.334 187.764 C 315.334 188.062,315.218 188.377,315.078 188.464 C 314.790 188.642,314.854 190.061,315.160 190.280 C 315.269 190.358,315.375 190.648,315.396 190.925 C 315.417 191.202,315.519 191.375,315.624 191.310 C 315.729 191.245,315.815 191.349,315.815 191.541 C 315.815 191.733,316.112 191.964,316.476 192.055 C 316.840 192.146,317.323 192.387,317.549 192.591 C 317.775 192.795,318.451 193.017,319.052 193.084 C 319.653 193.152,320.144 193.290,320.144 193.390 C 320.144 193.490,320.334 193.557,320.565 193.539 C 320.852 193.516,321.010 193.708,321.059 194.138 C 321.147 194.896,320.138 195.195,318.653 194.851 C 318.164 194.737,317.686 194.713,317.592 194.797 C 317.498 194.880,317.499 194.814,317.594 194.648 C 317.701 194.462,317.624 194.348,317.392 194.348 C 317.186 194.348,317.017 194.239,317.017 194.107 C 317.017 193.975,316.686 193.867,316.282 193.867 C 315.852 193.867,315.608 193.967,315.695 194.107 C 315.776 194.239,315.756 194.348,315.649 194.349 C 315.374 194.352,314.853 195.544,314.853 196.170 C 314.853 196.805,315.129 197.031,316.544 197.553 C 317.770 198.005,322.069 198.131,322.069 197.715 C 322.069 197.583,322.220 197.474,322.405 197.474 C 322.879 197.474,324.232 196.239,324.241 195.797 C 324.245 195.595,324.408 195.220,324.602 194.963 C 325.233 194.129,324.695 192.445,323.413 191.241 C 322.816 190.680,322.727 190.652,320.686 190.375 C 319.853 190.262,319.423 190.090,319.423 189.870 C 319.423 189.687,319.342 189.550,319.242 189.565 C 318.711 189.649,318.461 189.487,318.461 189.056 C 318.461 188.703,318.621 188.575,319.062 188.575 C 319.393 188.575,319.663 188.467,319.663 188.334 C 319.663 188.202,319.826 188.094,320.024 188.094 C 320.222 188.094,320.385 188.202,320.385 188.334 C 320.385 188.467,320.628 188.576,320.926 188.576 C 321.224 188.577,321.777 188.740,322.156 188.937 C 323.258 189.512,323.471 189.392,323.886 187.962 C 324.325 186.454,324.125 185.929,323.114 185.929 C 322.795 185.929,322.475 185.775,322.403 185.587 C 322.215 185.097,318.005 185.101,317.817 185.592 M325.565 185.434 C 325.488 185.559,325.420 188.400,325.414 191.748 L 325.404 197.835 327.043 197.835 L 328.683 197.835 328.751 192.063 C 328.836 184.810,328.930 185.207,327.129 185.207 C 326.346 185.207,325.642 185.310,325.565 185.434 M333.734 185.448 C 333.652 185.580,333.673 185.693,333.780 185.699 C 333.887 185.705,333.581 185.850,333.100 186.022 C 330.604 186.914,328.860 191.132,330.006 193.506 C 330.262 194.035,330.474 194.608,330.479 194.780 C 330.491 195.225,332.391 197.080,333.286 197.520 C 334.180 197.960,338.293 198.122,338.538 197.727 C 338.623 197.588,338.884 197.474,339.117 197.474 C 339.350 197.474,339.773 197.231,340.057 196.933 C 340.341 196.636,340.850 196.121,341.188 195.791 C 343.494 193.533,341.927 185.929,339.157 185.929 C 338.919 185.929,338.589 185.767,338.425 185.568 C 338.074 185.146,333.986 185.041,333.734 185.448 M343.957 191.636 L 343.957 197.978 345.460 197.907 L 346.963 197.835 347.084 194.829 C 347.185 192.307,347.249 191.919,347.482 192.423 C 347.635 192.754,348.204 193.480,348.745 194.038 C 349.286 194.595,349.729 195.150,349.729 195.271 C 349.729 195.392,349.906 195.638,350.123 195.818 C 350.339 195.998,350.774 196.552,351.088 197.050 C 351.645 197.933,351.696 197.956,353.100 197.956 L 354.540 197.956 354.540 191.962 C 354.540 184.912,354.603 185.207,353.091 185.207 C 351.126 185.207,351.174 185.128,351.162 188.420 C 351.152 191.236,351.136 191.320,350.741 190.773 C 350.515 190.461,350.096 189.950,349.808 189.638 C 349.521 189.327,349.223 188.878,349.147 188.643 C 349.071 188.407,348.657 187.824,348.227 187.348 C 347.796 186.872,347.197 186.191,346.895 185.834 C 346.418 185.270,346.187 185.192,345.151 185.239 L 343.957 185.293 343.957 191.636 M359.487 185.495 C 359.433 185.668,359.320 186.218,359.237 186.717 C 359.154 187.217,358.983 187.563,358.857 187.485 C 358.651 187.358,358.526 187.683,358.601 188.154 C 358.616 188.253,358.533 188.334,358.415 188.334 C 358.298 188.334,358.126 188.740,358.034 189.236 C 357.942 189.732,357.727 190.301,357.557 190.499 C 357.386 190.698,357.115 191.293,356.955 191.822 C 356.794 192.351,356.402 193.336,356.083 194.011 C 355.763 194.685,355.502 195.350,355.502 195.487 C 355.502 195.624,355.340 196.046,355.143 196.425 C 354.421 197.808,354.584 197.985,356.504 197.906 L 358.228 197.835 358.630 196.633 L 359.031 195.430 361.284 195.430 L 363.537 195.430 363.789 196.393 C 364.182 197.896,364.270 197.956,366.085 197.956 C 367.856 197.956,367.977 197.823,367.450 196.452 C 367.089 195.514,366.967 195.184,366.939 195.069 C 366.923 195.003,366.793 194.732,366.650 194.468 C 366.506 194.203,366.253 193.554,366.086 193.025 C 365.919 192.495,365.703 191.954,365.606 191.822 C 365.509 191.690,365.354 191.263,365.261 190.875 C 365.168 190.486,364.895 189.890,364.656 189.552 C 364.417 189.213,364.141 188.557,364.044 188.094 C 363.947 187.631,363.690 187.051,363.473 186.806 C 363.256 186.560,363.103 186.344,363.132 186.325 C 363.161 186.306,363.126 186.062,363.053 185.785 C 362.892 185.169,359.672 184.908,359.487 185.495 M368.363 185.501 C 368.296 185.675,368.271 188.521,368.306 191.826 L 368.370 197.835 372.640 197.901 L 376.909 197.967 376.909 196.518 L 376.909 195.069 374.268 195.069 L 371.628 195.069 371.562 190.198 L 371.497 185.328 369.991 185.256 C 368.914 185.205,368.450 185.275,368.363 185.501 M265.416 188.499 C 267.240 189.369,266.428 191.469,264.196 191.654 L 262.898 191.761 262.898 189.928 L 262.898 188.094 263.732 188.094 C 264.191 188.094,264.948 188.276,265.416 188.499 M276.488 188.434 C 278.554 189.150,277.846 191.459,275.501 191.654 L 274.203 191.761 274.203 189.928 L 274.203 188.094 274.865 188.097 C 275.229 188.099,275.959 188.251,276.488 188.434 M288.263 188.316 C 288.338 188.438,288.731 188.611,289.136 188.700 C 289.541 188.788,289.811 188.922,289.737 188.997 C 289.662 189.071,289.731 189.289,289.890 189.480 C 290.581 190.312,290.698 190.868,290.485 192.303 C 290.367 193.097,290.124 193.830,289.946 193.932 C 289.767 194.034,289.451 194.287,289.244 194.495 C 288.794 194.944,286.664 195.048,286.523 194.627 C 286.472 194.473,286.270 194.348,286.075 194.348 C 285.880 194.348,285.787 194.239,285.869 194.107 C 285.951 193.975,285.860 193.867,285.668 193.867 C 284.791 193.867,284.726 190.413,285.586 189.485 C 286.515 188.483,287.972 187.846,288.263 188.316 M336.587 188.595 C 337.200 188.513,337.676 188.628,338.078 188.953 C 338.335 189.162,338.382 189.251,338.184 189.153 C 337.949 189.036,337.987 189.160,338.292 189.507 C 339.343 190.705,338.960 194.348,337.783 194.348 C 337.606 194.348,337.462 194.442,337.462 194.557 C 337.462 195.534,334.449 194.771,333.770 193.621 C 333.347 192.905,333.201 190.018,333.588 190.018 C 333.706 190.018,333.868 189.757,333.948 189.438 C 334.061 188.987,334.307 188.822,335.056 188.695 C 335.586 188.606,336.021 188.407,336.023 188.253 C 336.025 188.072,336.099 188.087,336.230 188.295 C 336.342 188.471,336.503 188.607,336.587 188.595 M361.985 191.372 C 362.256 191.984,362.477 192.525,362.477 192.574 C 362.477 192.624,361.990 192.664,361.395 192.664 C 360.285 192.664,360.007 192.344,360.601 191.750 C 360.760 191.591,360.801 191.461,360.692 191.461 C 360.583 191.461,360.629 191.299,360.794 191.100 C 360.958 190.902,360.999 190.738,360.883 190.736 C 360.717 190.733,361.258 190.276,361.444 190.262 C 361.471 190.260,361.714 190.759,361.985 191.372 M252.856 200.527 C 253.088 200.587,253.467 200.587,253.698 200.527 C 253.930 200.466,253.740 200.417,253.277 200.417 C 252.814 200.417,252.625 200.466,252.856 200.527 " stroke="none" fill="#347ce4" fill-rule="evenodd"></path></g></svg>